<?xml version="1.0" encoding="UTF-8"?>
<svg width="108px" height="108px" viewBox="0 0 108 108" version="1.1" xmlns="http://www.w3.org/2000/svg" xmlns:xlink="http://www.w3.org/1999/xlink">
    <!-- Generator: Sketch 48.1 (47250) - http://www.bohemiancoding.com/sketch -->
    <title>ppt</title>
    <desc>Created with Sketch.</desc>
    <defs>
        <linearGradient x1="100%" y1="100%" x2="0%" y2="0%" id="linearGradient-1">
            <stop stop-color="#FF9075" offset="0%"></stop>
            <stop stop-color="#EA5C7A" offset="100%"></stop>
        </linearGradient>
    </defs>
    <g id="Artboard-3" stroke="none" stroke-width="1" fill="none" fill-rule="evenodd" transform="translate(-674.000000, -253.000000)">
        <path d="M742.814948,267.312522 L766.442557,264.807658 C769.701267,264.462189 772.622398,266.82984 772.967085,270.095957 C772.989013,270.303742 773,270.512541 773,270.721485 L773,342.197217 C773,345.481553 770.343556,348.144034 767.066667,348.144034 C766.858196,348.144034 766.649871,348.133022 766.442557,348.111043 L742.942917,345.619746 C746.749668,343.607111 749.266667,339.611933 749.266667,335.115463 L749.266667,277.883465 C749.266667,273.3368 746.693158,269.302681 742.814948,267.312522 Z M691.029634,263.102393 L738.4963,272.046732 C741.301273,272.575284 743.333333,275.030555 743.333333,277.891156 L743.333333,335.107773 C743.333333,337.968374 741.301273,340.423644 738.4963,340.952197 L691.029634,349.896535 C687.809166,350.503381 684.707631,348.378689 684.102161,345.150903 C684.034201,344.788605 684,344.420757 684,344.052111 L684,268.946817 C684,265.662481 686.656444,263 689.933333,263 C690.301143,263 690.668157,263.034279 691.029634,263.102393 Z M702.788889,331.799196 L708.764714,330.748174 L708.764714,312.405507 L717.85013,312.050653 C721.90614,311.814697 724.988661,310.336189 727.097786,307.682186 C729.152831,305.249439 730.180339,302.603257 730.180339,299.677838 C730.180339,297.510861 729.774744,295.591304 728.963542,293.901944 C728.188393,292.139275 727.178912,290.709193 725.935069,289.613962 C724.456879,288.158543 722.996738,287.098033 721.554601,286.44822 C720.112464,285.887057 718.616269,285.468281 717.065972,285.197427 L702.788889,282.703062 L702.788889,331.799196 Z M708.764714,290.484569 L717.390451,291.558086 C719.012855,291.720306 720.436944,292.300203 721.66276,293.28434 C722.473962,293.878933 723.104888,294.629924 723.555556,295.537532 C723.988197,296.532264 724.204514,297.7211 724.204514,299.109276 C724.204514,300.782694 723.672734,302.282149 722.609158,303.626099 C721.491502,305.032534 719.824056,305.752454 717.606771,305.767061 L708.764714,305.668042 L708.764714,290.484569 Z" id="Combined-Shape" fill="url(#linearGradient-1)"></path>
    </g>
</svg>