<?xml version="1.0" encoding="UTF-8" standalone="no"?>
<svg width="43px" height="43px" viewBox="0 0 43 43" version="1.1" xmlns="http://www.w3.org/2000/svg" xmlns:xlink="http://www.w3.org/1999/xlink">
    <!-- Generator: Sketch 47.1 (45422) - http://www.bohemiancoding.com/sketch -->
    <title>Group 6</title>
    <desc>Created with Sketch.</desc>
    <defs>
        <linearGradient x1="50%" y1="2.14046556%" x2="50%" y2="97.3592953%" id="linearGradient-1">
            <stop stop-color="#80D3FF" offset="0%"></stop>
            <stop stop-color="#026AD7" offset="100%"></stop>
        </linearGradient>
        <linearGradient x1="-13.6287302%" y1="73.7115393%" x2="118.476608%" y2="-21.3209783%" id="linearGradient-2">
            <stop stop-color="#9BD7FF" offset="0%"></stop>
            <stop stop-color="#E2F3FF" offset="100%"></stop>
        </linearGradient>
    </defs>
    <g id="Page-1" stroke="none" stroke-width="1" fill="none" fill-rule="evenodd">
        <g id="Desktop" transform="translate(-493.000000, -818.000000)">
            <g id="Group-3" transform="translate(191.000000, 781.000000)">
                <g id="Group-6" transform="translate(302.000000, 37.000000)">
                    <path d="M21.5,0 C9.62587788,0 0,9.62587788 0,21.5 C0,33.3741221 9.62587788,43 21.5,43 C33.3741221,43 43,33.3741221 43,21.5 L31.3541667,21.5 C31.3541667,26.942306 26.942306,31.3541667 21.5,31.3541667 C16.057694,31.3541667 11.6458333,26.942306 11.6458333,21.5 C11.6458333,16.057694 16.057694,11.6458333 21.5,11.6458333 L21.5,1.33226763e-15 Z" id="Combined-Shape" fill="url(#linearGradient-1)" fill-rule="nonzero"></path>
                    <path d="M28.5393043,17.8675186 C26.7695578,18.3186364 25.1866284,22 25.1866284,22 L25.0112052,14.681093 C25.0112052,14.681093 25.0368449,14.695021 25.0841464,14.7210221 C25.0289918,14.4561305 25,14.1814642 25,13.8998091 L25,3.99328969 C25,1.78785669 26.7917156,0 28.9947834,0 L39.0052166,0 C41.2114745,0 43,1.7810747 43,3.99328969 L43,13.8998091 C43,16.1052421 41.2082844,17.8930988 39.0052166,17.8930988 L28.9947834,17.8930988 C28.8407658,17.8930988 28.688784,17.884419 28.5393043,17.8675186 Z M28.6,10.7358593 C29.5941125,10.7358593 30.4,9.93475794 30.4,8.94654939 C30.4,7.95834083 29.5941125,7.15723951 28.6,7.15723951 C27.6058875,7.15723951 26.8,7.95834083 26.8,8.94654939 C26.8,9.93475794 27.6058875,10.7358593 28.6,10.7358593 Z M34,10.7358593 C34.9941125,10.7358593 35.8,9.93475794 35.8,8.94654939 C35.8,7.95834083 34.9941125,7.15723951 34,7.15723951 C33.0058875,7.15723951 32.2,7.95834083 32.2,8.94654939 C32.2,9.93475794 33.0058875,10.7358593 34,10.7358593 Z M39.4,10.7358593 C40.3941125,10.7358593 41.2,9.93475794 41.2,8.94654939 C41.2,7.95834083 40.3941125,7.15723951 39.4,7.15723951 C38.4058875,7.15723951 37.6,7.95834083 37.6,8.94654939 C37.6,9.93475794 38.4058875,10.7358593 39.4,10.7358593 Z" id="Combined-Shape" fill="url(#linearGradient-2)"></path>
                </g>
            </g>
        </g>
    </g>
</svg>