<?xml version="1.0" encoding="UTF-8" standalone="no"?>
<svg width="40px" height="45px" viewBox="0 0 40 45" version="1.1" xmlns="http://www.w3.org/2000/svg" xmlns:xlink="http://www.w3.org/1999/xlink">
    <!-- Generator: Sketch 47.1 (45422) - http://www.bohemiancoding.com/sketch -->
    <title>Combined Shape</title>
    <desc>Created with Sketch.</desc>
    <defs>
        <linearGradient x1="0%" y1="0%" x2="101.999998%" y2="100.999999%" id="linearGradient-1">
            <stop stop-color="#0DA7F0" offset="0%"></stop>
            <stop stop-color="#705EDE" offset="100%"></stop>
        </linearGradient>
    </defs>
    <g id="Page-1" stroke="none" stroke-width="1" fill="none" fill-rule="evenodd">
        <g id="Desktop" transform="translate(-226.000000, -819.000000)" fill="url(#linearGradient-1)">
            <g id="Group-3" transform="translate(191.000000, 781.000000)">
                <path d="M51.875,79.3711006 L51.875,58.7437935 C51.875,57.1909432 53.1373598,55.9321093 54.6875,55.9321093 C56.2408009,55.9321093 57.5,57.1873601 57.5,58.7437935 L57.5,79.3671143 C57.5,80.9275281 58.7591991,82.1821093 60.3125,82.1821093 C61.8626402,82.1821093 63.125,80.9217931 63.125,79.3671143 L63.125,42.0035379 L57.1312165,38.5785187 C55.7810899,37.8070178 53.5934109,37.8073031 52.2437835,38.5785187 L37.4437165,47.0356999 C36.0935899,47.8072008 35,49.6926488 35,51.247603 L35,68.1166156 C35,69.6741993 36.0940891,71.5573031 37.4437165,72.3285187 L40.15625,73.8785379 L40.15625,73.7446093 L40.625,73.7446093 L40.625,66.2434708 C40.625,64.6907987 41.8873598,63.4321093 43.4375,63.4321093 C44.9908009,63.4321093 46.25,64.6904821 46.25,66.2434708 L46.25,79.3711006 C46.25,80.9219801 47.5091991,82.1821093 49.0625,82.1821093 C50.6126402,82.1821093 51.875,80.9235778 51.875,79.3711006 Z M68.75,74.146395 L71.9312835,72.3285187 C73.2814101,71.5570178 74.375,69.6715698 74.375,68.1166156 L74.375,51.247603 C74.375,49.6900193 73.2809109,47.8069155 71.9312835,47.0356999 L68.75,45.2178236 L68.75,74.146395 L68.75,74.146395 Z" id="Combined-Shape"></path>
            </g>
        </g>
    </g>
</svg>