<?xml version="1.0" encoding="UTF-8" standalone="no"?>
<svg width="47px" height="47px" viewBox="0 0 47 47" version="1.1" xmlns="http://www.w3.org/2000/svg" xmlns:xlink="http://www.w3.org/1999/xlink">
    <!-- Generator: Sketch 47.1 (45422) - http://www.bohemiancoding.com/sketch -->
    <title>echarts logo</title>
    <desc>Created with Sketch.</desc>
    <defs></defs>
    <g id="Page-1" stroke="none" stroke-width="1" fill="none" fill-rule="evenodd">
        <g id="Desktop" transform="translate(-226.000000, -1026.000000)" fill-rule="nonzero">
            <g id="Group-3" transform="translate(191.000000, 781.000000)">
                <g id="产品" transform="translate(0.000000, 218.000000)">
                    <g id="echarts-logo" transform="translate(35.000000, 27.000000)">
                        <path d="M23.5007796,0 C10.522149,0 0,10.5197118 0,23.5009922 C0,36.479296 10.522149,47 23.5007796,47 C26.1571133,47 28.7028906,46.5363474 31.0849591,45.72655 C39.543244,42.8387499 45.8296597,35.2821056 46.84678,26.1194742 C46.9424539,25.2570888 47,24.3870492 47,23.501134 C47.0001417,10.5197118 36.477851,0 23.5007796,0 Z" id="Shape" fill="#A9334C" opacity="0.945137593"></path>
                        <path d="M39.2283181,29.1749582 C38.8703708,29.0418559 38.5039108,28.9862702 38.1444285,29.0033735 C38.2072262,28.7222724 38.2256469,28.440068 38.2006674,28.1640704 C38.1087035,27.1631135 37.4544902,26.2536041 36.4427482,25.8718143 C35.4019797,25.4828521 34.2728757,25.7598152 33.533397,26.4879469 C33.8251973,26.4908434 34.1238356,26.5457395 34.4124263,26.6544282 C35.7371803,27.1500101 36.4031159,28.6142734 35.9035247,29.924469 C35.7173641,30.408051 35.3994678,30.8004614 35.0062142,31.0825279 C34.3295333,31.5643169 33.4308273,31.7121777 32.5939422,31.3976976 C31.2687696,30.9032191 30.6032527,29.4389559 31.1046581,28.1284845 C31.1687118,27.9575894 31.251884,27.7989701 31.3490112,27.6482127 L31.3474761,27.6482127 L31.3474761,27.6482127 C31.7756174,26.9902874 32.1411005,26.2762246 32.433459,25.5151277 C34.6989237,19.5997305 31.6844909,12.9866841 25.6976299,10.7458759 C19.7107689,8.50479177 13.0214101,11.4843523 10.7546894,17.4001633 C10.1342474,19.0140804 9.90998954,20.6805487 10.0319568,22.2954314 C10.0348873,22.3486723 10.0400507,22.4031546 10.044935,22.4579127 C10.5277801,27.9497274 14.1083698,32.956029 19.6729507,35.0362869 C25.3321468,37.1536479 31.4753045,35.6642815 35.5178068,31.7219707 C36.2083032,31.0593557 37.2517232,30.8135647 38.2095986,31.172872 C39.3638217,31.6045924 40.0159418,32.7684444 39.8375961,33.927331 C40.2690866,33.6266439 40.6190795,33.1990614 40.8212884,32.6720314 C41.3584187,31.2716297 40.6436404,29.7051605 39.2283181,29.1749582 Z" id="Shape" fill="#FFFFFF"></path>
                    </g>
                </g>
            </g>
        </g>
    </g>
</svg>